<mxfile host="app.diagrams.net" agent="Mozilla/5.0 (Windows NT 10.0; Win64; x64) AppleWebKit/537.36 (KHTML, like Gecko) Chrome/133.0.0.0 Safari/537.36" version="24.7.14">
  <diagram name="Page-1" id="P4HAox7FnINMB1Wm_-3P">
    <mxGraphModel dx="1222" dy="586" grid="1" gridSize="10" guides="1" tooltips="1" connect="1" arrows="1" fold="1" page="1" pageScale="1" pageWidth="850" pageHeight="1100" math="0" shadow="0">
      <root>
        <mxCell id="0" />
        <mxCell id="1" parent="0" />
        <mxCell id="gEtqKfynTVpWf0lrkoT0-9" value="" style="edgeStyle=orthogonalEdgeStyle;rounded=0;orthogonalLoop=1;jettySize=auto;html=1;" edge="1" parent="1" source="gEtqKfynTVpWf0lrkoT0-5" target="gEtqKfynTVpWf0lrkoT0-8">
          <mxGeometry relative="1" as="geometry" />
        </mxCell>
        <mxCell id="gEtqKfynTVpWf0lrkoT0-5" value="User" style="shape=umlActor;verticalLabelPosition=bottom;verticalAlign=top;html=1;outlineConnect=0;" vertex="1" parent="1">
          <mxGeometry x="120" y="330" width="30" height="60" as="geometry" />
        </mxCell>
        <mxCell id="gEtqKfynTVpWf0lrkoT0-8" value="&lt;div&gt;&lt;br&gt;&lt;/div&gt;Server" style="whiteSpace=wrap;html=1;verticalAlign=top;align=center;" vertex="1" parent="1">
          <mxGeometry x="540" y="330" width="120" height="60" as="geometry" />
        </mxCell>
        <mxCell id="gEtqKfynTVpWf0lrkoT0-11" value="DB" style="shape=cylinder3;whiteSpace=wrap;html=1;boundedLbl=1;backgroundOutline=1;size=15;" vertex="1" parent="1">
          <mxGeometry x="950" y="220" width="60" height="80" as="geometry" />
        </mxCell>
        <mxCell id="gEtqKfynTVpWf0lrkoT0-13" style="edgeStyle=orthogonalEdgeStyle;rounded=0;orthogonalLoop=1;jettySize=auto;html=1;exitX=0.5;exitY=0;exitDx=0;exitDy=0;entryX=0;entryY=0.5;entryDx=0;entryDy=0;entryPerimeter=0;" edge="1" parent="1" source="gEtqKfynTVpWf0lrkoT0-8" target="gEtqKfynTVpWf0lrkoT0-11">
          <mxGeometry relative="1" as="geometry" />
        </mxCell>
        <mxCell id="gEtqKfynTVpWf0lrkoT0-14" value="&lt;font style=&quot;font-size: 20px;&quot;&gt;Title / Time&amp;nbsp;&lt;/font&gt;&lt;span style=&quot;font-size: 20px; background-color: initial;&quot;&gt;/ Description&lt;/span&gt;" style="text;html=1;align=center;verticalAlign=middle;resizable=0;points=[];autosize=1;strokeColor=none;fillColor=none;" vertex="1" parent="1">
          <mxGeometry x="590" y="210" width="240" height="40" as="geometry" />
        </mxCell>
        <mxCell id="gEtqKfynTVpWf0lrkoT0-15" value="&lt;font style=&quot;font-size: 20px;&quot;&gt;Add / Edit / Delete&lt;/font&gt;" style="text;html=1;align=center;verticalAlign=middle;whiteSpace=wrap;rounded=0;" vertex="1" parent="1">
          <mxGeometry x="200" y="310" width="180" height="30" as="geometry" />
        </mxCell>
        <mxCell id="gEtqKfynTVpWf0lrkoT0-17" style="edgeStyle=orthogonalEdgeStyle;rounded=0;orthogonalLoop=1;jettySize=auto;html=1;exitX=0.5;exitY=0;exitDx=0;exitDy=0;" edge="1" parent="1" source="gEtqKfynTVpWf0lrkoT0-16" target="gEtqKfynTVpWf0lrkoT0-11">
          <mxGeometry relative="1" as="geometry" />
        </mxCell>
        <mxCell id="gEtqKfynTVpWf0lrkoT0-19" style="edgeStyle=orthogonalEdgeStyle;rounded=0;orthogonalLoop=1;jettySize=auto;html=1;exitX=0;exitY=0.5;exitDx=0;exitDy=0;" edge="1" parent="1" source="gEtqKfynTVpWf0lrkoT0-16" target="gEtqKfynTVpWf0lrkoT0-18">
          <mxGeometry relative="1" as="geometry" />
        </mxCell>
        <mxCell id="gEtqKfynTVpWf0lrkoT0-16" value="1 Min" style="ellipse;whiteSpace=wrap;html=1;aspect=fixed;" vertex="1" parent="1">
          <mxGeometry x="935" y="490" width="90" height="90" as="geometry" />
        </mxCell>
        <mxCell id="gEtqKfynTVpWf0lrkoT0-20" style="edgeStyle=orthogonalEdgeStyle;rounded=0;orthogonalLoop=1;jettySize=auto;html=1;exitX=0;exitY=0.5;exitDx=0;exitDy=0;" edge="1" parent="1" source="gEtqKfynTVpWf0lrkoT0-18" target="gEtqKfynTVpWf0lrkoT0-5">
          <mxGeometry relative="1" as="geometry" />
        </mxCell>
        <mxCell id="gEtqKfynTVpWf0lrkoT0-18" value="Telegram" style="shape=hexagon;perimeter=hexagonPerimeter2;whiteSpace=wrap;html=1;fixedSize=1;" vertex="1" parent="1">
          <mxGeometry x="420" y="495" width="120" height="80" as="geometry" />
        </mxCell>
      </root>
    </mxGraphModel>
  </diagram>
</mxfile>
